<svg xmlns="http://www.w3.org/2000/svg" width="760" height="560" viewBox="0 0 760 560" role="img" aria-labelledby="title desc">
  <title id="title">Responsive portfolio screens</title>
  <desc id="desc">A desktop browser and mobile phone showing a blue and violet developer portfolio interface</desc>
  <defs>
    <linearGradient id="bg" x1="0" x2="1" y1="0" y2="1"><stop stop-color="#432f28"/><stop offset="1" stop-color="#805746"/></linearGradient>
    <linearGradient id="accent" x1="0" x2="1"><stop stop-color="#a45f45"/><stop offset="1" stop-color="#c48a68"/></linearGradient>
  </defs>
  <rect width="760" height="560" rx="30" fill="url(#bg)"/>
  <circle cx="650" cy="92" r="95" fill="#d09a78" opacity=".28"/>
  <circle cx="110" cy="468" r="120" fill="#899277" opacity=".22"/>
  <rect x="62" y="82" width="520" height="350" rx="20" fill="#fff"/>
  <rect x="62" y="82" width="520" height="48" rx="20" fill="#f4e8dd"/>
  <circle cx="92" cy="106" r="7" fill="#ff6b6b"/><circle cx="116" cy="106" r="7" fill="#f0bd45"/><circle cx="140" cy="106" r="7" fill="#4ac59c"/>
  <rect x="94" y="166" width="220" height="20" rx="10" fill="#432f28"/>
  <rect x="94" y="202" width="305" height="11" rx="6" fill="#9aa6bd"/>
  <rect x="94" y="226" width="260" height="11" rx="6" fill="#c0c8d8"/>
  <rect x="94" y="264" width="115" height="39" rx="9" fill="url(#accent)"/>
  <rect x="94" y="338" width="128" height="60" rx="12" fill="#f7ebe1"/><rect x="238" y="338" width="128" height="60" rx="12" fill="#f3e2d6"/><rect x="382" y="338" width="128" height="60" rx="12" fill="#edf0e8"/>
  <rect x="516" y="176" width="170" height="310" rx="28" fill="#0d1730" stroke="#9eb0dc" stroke-width="6"/>
  <rect x="532" y="208" width="138" height="242" rx="13" fill="#fff"/>
  <rect x="550" y="237" width="94" height="13" rx="7" fill="#432f28"/>
  <rect x="550" y="268" width="104" height="8" rx="4" fill="#a5afc3"/>
  <rect x="550" y="286" width="83" height="8" rx="4" fill="#c3cada"/>
  <rect x="550" y="320" width="87" height="33" rx="8" fill="url(#accent)"/>
  <rect x="550" y="382" width="102" height="45" rx="9" fill="#f7ebe1"/>
  <rect x="578" y="190" width="47" height="6" rx="3" fill="#7d89a6"/>
</svg>
